<?xml version="1.0" encoding="iso-8859-1"?>
<!-- Generator: Adobe Illustrator 19.0.0, SVG Export Plug-In . SVG Version: 6.00 Build 0)  -->
<svg version="1.1" id="Layer_1" xmlns="http://www.w3.org/2000/svg" xmlns:xlink="http://www.w3.org/1999/xlink" x="0px" y="0px"
	 viewBox="0 0 298.646 298.646" style="enable-background:new 0 0 298.646 298.646;" xml:space="preserve">
<g>
	<g>
		<path d="M298.261,104.908c-0.756-1.701-2.457-2.835-4.347-2.835h-32.571c-1.26,0-2.52,0.504-3.402,1.449l-11.718,11.97
			c-0.882,0.882-1.323,2.079-1.323,3.276v13.671h-4.662l-21.357-14.805c-0.819-0.567-1.701-0.819-2.709-0.819h-56.007
			c-2.583,0-4.725,2.142-4.725,4.725v17.388h-37.737l-12.852-11.655c-1.323-1.197-3.213-1.575-4.851-0.945L3.043,163.183
			c-1.449,0.567-2.52,1.764-2.898,3.213s0,3.087,0.945,4.221l10.836,12.915c0.882,1.071,2.205,1.701,3.591,1.701h38.556
			c3.528,6.741,10.584,11.34,18.711,11.34c11.655,0,21.105-9.45,21.105-21.105c0-1.071-0.063-2.079-0.252-3.087h3.339l9.45,10.395
			c0.882,1.008,2.142,1.512,3.465,1.575l115.038,0.882c3.528,6.741,10.584,11.34,18.711,11.34c10.521,0,19.215-7.686,20.853-17.766
			h18.459c2.583,0,4.725-2.142,4.725-4.725v-53.424l9.639-10.647C298.639,108.562,299.017,106.609,298.261,104.908z M72.847,187.06
			c-6.426,0-11.655-5.229-11.655-11.655c0-6.426,5.229-11.655,11.655-11.655c6.426,0,11.655,5.229,11.655,11.655
			C84.502,181.831,79.273,187.06,72.847,187.06z M243.766,187.06c-6.426,0-11.655-5.229-11.655-11.655
			c0-6.426,5.229-11.655,11.655-11.655c6.426,0,11.655,5.229,11.655,11.655C255.421,181.831,250.192,187.06,243.766,187.06z
			 M279.55,115.618c-0.819,0.882-1.197,2.016-1.197,3.15v50.526h-14.364c-2.646-8.694-10.71-14.994-20.223-14.994
			c-11.655,0-21.105,9.45-21.105,21.105c0,0.126,0,0.189,0,0.252l-110.502-0.819l-9.45-10.458c-0.882-1.008-2.142-1.575-3.528-1.575
			h-9.387c-3.843-5.166-10.017-8.568-16.947-8.568c-11.655,0-21.105,9.45-21.105,21.105c0,0.126,0,0.252,0,0.315H17.785
			l-5.166-6.111l88.011-33.453l12.033,10.962c0.882,0.819,2.016,1.197,3.15,1.197h44.289c2.583,0,4.725-2.142,4.725-4.725v-17.388
			h49.77l21.357,14.805c0.819,0.567,1.701,0.819,2.709,0.819h10.836c2.583,0,4.725-2.142,4.725-4.725v-16.506l8.946-9.198h19.908
			L279.55,115.618z"/>
	</g>
</g>
<g>
</g>
<g>
</g>
<g>
</g>
<g>
</g>
<g>
</g>
<g>
</g>
<g>
</g>
<g>
</g>
<g>
</g>
<g>
</g>
<g>
</g>
<g>
</g>
<g>
</g>
<g>
</g>
<g>
</g>
</svg>
